<?xml version="1.0" encoding="iso-8859-1"?>
<!-- Generator: Adobe Illustrator 19.0.0, SVG Export Plug-In . SVG Version: 6.00 Build 0)  -->
<svg version="1.1" id="Layer_1" xmlns="http://www.w3.org/2000/svg" xmlns:xlink="http://www.w3.org/1999/xlink" x="0px" y="0px"
	 viewBox="0 0 512 512" style="enable-background:new 0 0 512 512;" xml:space="preserve">
<g>
	<path style="fill:#B0B6BB;" d="M308.145,406.069c-1.836,5.12-6.691,8.828-12.42,8.828h-70.621c-5.729,0-10.593-3.708-12.429-8.828
		H5.102c-2.825,0-5.102,2.286-5.102,5.102v25.106c0,2.816,2.278,5.102,5.102,5.102h501.795c2.816,0,5.102-2.286,5.102-5.102v-25.106
		c0-2.816-2.286-5.102-5.102-5.102H308.145z"/>
	<path style="fill:#E8EDEE;" d="M212.678,406.069c1.836,5.12,6.691,8.828,12.42,8.828h70.621c5.729,0,10.593-3.708,12.429-8.828
		H494.34V97.103c0-14.627-11.855-26.483-26.483-26.483H44.133c-14.627,0-26.483,11.855-26.483,26.483v308.966H212.678z"/>
	<polygon style="fill:#7383BF;" points="52.963,370.759 459.032,370.759 459.032,105.931 52.963,105.931 	"/>
	<g>
		<path style="fill:#FFFFFF;" d="M176.549,282.483c-24.338,0-44.138-19.8-44.138-44.138s19.8-44.138,44.138-44.138
			c7.689,0,15.148,2.119,22.166,6.294c4.193,2.489,5.57,7.91,3.072,12.094c-2.489,4.193-7.918,5.57-12.094,3.081
			c-4.255-2.534-8.678-3.814-13.144-3.814c-14.601,0-26.483,11.882-26.483,26.483s11.882,26.483,26.483,26.483
			c4.467,0,8.889-1.28,13.144-3.814c4.184-2.489,9.604-1.121,12.094,3.081c2.498,4.184,1.121,9.604-3.072,12.094
			C191.697,280.364,184.238,282.483,176.549,282.483"/>
		<path style="fill:#FFFFFF;" d="M264.825,282.483h-14.001c-10.408,0-20.198-4.052-27.551-11.414c-3.452-3.452-3.452-9.031,0-12.482
			c3.452-3.452,9.031-3.452,12.482,0c3.964,3.964,9.463,6.241,15.069,6.241h14.001c4.864,0,8.828-3.964,8.828-8.828
			c0-4.864-3.964-8.828-8.828-8.828h-8.828c-4.873,0-8.828-3.955-8.828-8.828s3.955-8.828,8.828-8.828h8.828
			c14.601,0,26.483,11.882,26.483,26.483C291.308,270.601,279.426,282.483,264.825,282.483"/>
		<path style="fill:#FFFFFF;" d="M255.997,247.172h-8.828c-14.601,0-26.483-11.882-26.483-26.483
			c0-14.601,11.882-26.483,26.483-26.483h14.001c10.408,0,20.198,4.052,27.551,11.414c3.452,3.452,3.452,9.031,0,12.482
			s-9.031,3.452-12.482,0c-3.964-3.964-9.463-6.241-15.069-6.241H247.17c-4.864,0-8.828,3.964-8.828,8.828
			c0,4.864,3.964,8.828,8.828,8.828h8.828c4.873,0,8.828,3.955,8.828,8.828S260.87,247.172,255.997,247.172"/>
		<path style="fill:#FFFFFF;" d="M353.101,282.483H339.1c-10.408,0-20.198-4.052-27.551-11.414c-3.452-3.452-3.452-9.031,0-12.482
			c3.452-3.452,9.031-3.452,12.482,0c3.964,3.964,9.463,6.241,15.069,6.241h14.001c4.864,0,8.828-3.964,8.828-8.828
			c0-4.864-3.964-8.828-8.828-8.828h-8.828c-4.873,0-8.828-3.955-8.828-8.828s3.955-8.828,8.828-8.828h8.828
			c14.601,0,26.483,11.882,26.483,26.483C379.584,270.601,367.702,282.483,353.101,282.483"/>
		<path style="fill:#FFFFFF;" d="M344.273,247.172h-8.828c-14.601,0-26.483-11.882-26.483-26.483
			c0-14.601,11.882-26.483,26.483-26.483h14.001c10.408,0,20.198,4.052,27.551,11.414c3.452,3.452,3.452,9.031,0,12.482
			c-3.452,3.452-9.031,3.452-12.482,0c-3.964-3.964-9.463-6.241-15.069-6.241h-14.001c-4.864,0-8.828,3.964-8.828,8.828
			c0,4.864,3.964,8.828,8.828,8.828h8.828c4.873,0,8.828,3.955,8.828,8.828S349.146,247.172,344.273,247.172"/>
	</g>
</g>
<g>
</g>
<g>
</g>
<g>
</g>
<g>
</g>
<g>
</g>
<g>
</g>
<g>
</g>
<g>
</g>
<g>
</g>
<g>
</g>
<g>
</g>
<g>
</g>
<g>
</g>
<g>
</g>
<g>
</g>
</svg>
