<?xml version="1.0" encoding="iso-8859-1"?>
<!-- Generator: Adobe Illustrator 19.0.0, SVG Export Plug-In . SVG Version: 6.00 Build 0)  -->
<svg version="1.1" id="Layer_1" xmlns="http://www.w3.org/2000/svg" xmlns:xlink="http://www.w3.org/1999/xlink" x="0px" y="0px"
	 viewBox="0 0 512 512" style="enable-background:new 0 0 512 512;" xml:space="preserve">
<rect x="22.756" y="73.956" style="fill:#0052B4;" width="466.489" height="312.889"/>
<polygon style="fill:#003778;" points="256,73.956 256.278,386.844 489.244,386.844 489.244,73.956 "/>
<path style="fill:#93C7EF;" d="M0,375.467v17.067c0,25.095,20.415,45.511,45.511,45.511h420.978
	c25.096,0,45.511-20.416,45.511-45.511v-17.067H0z"/>
<path style="fill:#78B9EB;" d="M256.278,375.467v62.578h210.211c25.096,0,45.511-20.416,45.511-45.511v-17.067H256.278z"/>
<g>
	<polygon style="fill:#FFFFFF;" points="154.535,214.05 132.44,214.05 132.44,187.221 110.197,187.221 110.197,262.201 
		132.44,262.201 132.44,233.734 154.535,233.734 154.535,262.201 176.779,262.201 176.779,187.221 154.535,187.221 	"/>
	<polygon style="fill:#FFFFFF;" points="184.847,206.905 205.838,206.905 205.838,262.201 228.082,262.201 228.082,206.905 
		248.971,206.905 248.971,187.221 184.847,187.221 	"/>
	<polygon style="fill:#FFFFFF;" points="294.618,219.837 279.679,187.221 256,187.221 256,262.201 278.242,262.201 278.242,228.04 
		288.556,250.835 300.675,250.835 310.988,228.04 310.988,262.201 333.231,262.201 333.231,187.221 309.656,187.221 	"/>
	<polygon style="fill:#FFFFFF;" points="369.802,242.517 369.802,187.221 347.558,187.221 347.558,262.201 402.773,262.201 
		402.773,242.517 	"/>
</g>
<g>
</g>
<g>
</g>
<g>
</g>
<g>
</g>
<g>
</g>
<g>
</g>
<g>
</g>
<g>
</g>
<g>
</g>
<g>
</g>
<g>
</g>
<g>
</g>
<g>
</g>
<g>
</g>
<g>
</g>
</svg>
